<?xml version="1.0" encoding="UTF-8" standalone="no"?>
<!-- Created with Inkscape (http://www.inkscape.org/) -->

<svg
   width="48.40361mm"
   height="31.833168mm"
   viewBox="0 0 48.40361 31.833168"
   version="1.1"
   id="svg1"
   inkscape:version="1.3 (0e150ed6c4, 2023-07-21)"
   sodipodi:docname="sketches.svg"
   xmlns:inkscape="http://www.inkscape.org/namespaces/inkscape"
   xmlns:sodipodi="http://sodipodi.sourceforge.net/DTD/sodipodi-0.dtd"
   xmlns="http://www.w3.org/2000/svg"
   xmlns:svg="http://www.w3.org/2000/svg">
  <sodipodi:namedview
     id="namedview1"
     pagecolor="#ffffff"
     bordercolor="#000000"
     borderopacity="0.25"
     inkscape:showpageshadow="2"
     inkscape:pageopacity="0.0"
     inkscape:pagecheckerboard="0"
     inkscape:deskcolor="#d1d1d1"
     inkscape:document-units="mm"
     inkscape:zoom="1.4342733"
     inkscape:cx="670.37435"
     inkscape:cy="588.10272"
     inkscape:window-width="1920"
     inkscape:window-height="1011"
     inkscape:window-x="0"
     inkscape:window-y="0"
     inkscape:window-maximized="1"
     inkscape:current-layer="layer1" />
  <defs
     id="defs1" />
  <g
     inkscape:label="Layer 1"
     inkscape:groupmode="layer"
     id="layer1"
     transform="translate(-130.04413,-140.58505)">
    <path
       style="font-weight:bold;font-size:39.2301px;font-family:Poppins;-inkscape-font-specification:'Poppins Bold';fill:#2b2d42;stroke-width:3.71016"
       d="m 169.49884,150.82509 q -0.84591,-1.55826 -2.4487,-2.35966 -1.55827,-0.84591 -3.69532,-0.84591 -3.69532,0 -5.92141,2.4487 -2.2261,2.40419 -2.2261,6.45568 0,4.31862 2.31514,6.76733 2.35966,2.40418 6.45568,2.40418 2.80488,0 4.71932,-1.4247 1.95896,-1.4247 2.8494,-4.09602 h -9.66125 v -5.60976 h 16.56215 v 7.07899 q -0.84592,2.8494 -2.89393,5.2981 -2.00348,2.44871 -5.12002,3.96245 -3.11653,1.51375 -7.03446,1.51375 -4.63028,0 -8.28107,-2.00349 -3.60628,-2.048 -5.65428,-5.65428 -2.00349,-3.60627 -2.00349,-8.23655 0,-4.63028 2.00349,-8.23655 2.048,-3.6508 5.65428,-5.65429 3.60627,-2.048 8.23655,-2.048 5.60976,0 9.43864,2.71583 3.87341,2.71584 5.12002,7.5242 z"
       id="path4" />
    <path
       style="font-weight:bold;font-size:39.2301px;font-family:Poppins;-inkscape-font-specification:'Poppins Bold';fill:#2b2d42;stroke-width:3.71016"
       d="m 153.86336,151.00318 q 0,2.71584 -1.24661,4.98645 -1.24662,2.2261 -3.82889,3.60628 -2.58227,1.38018 -6.41115,1.38018 h -4.71932 v 11.21952 h -7.61325 v -31.25438 h 12.33257 q 3.73984,0 6.32211,1.29114 2.58227,1.29113 3.8734,3.56175 1.29114,2.27062 1.29114,5.20906 z"
       id="path5" />
    <path
       id="path6"
       style="font-weight:bold;font-size:39.2301px;font-family:Poppins;-inkscape-font-specification:'Poppins Bold';fill:#5da9e9;fill-opacity:1;stroke-width:3.71016"
       d="m 152.01163,144.94568 c -0.98806,0.96716 -1.83924,2.07892 -2.54764,3.34172 -1.33565,2.40418 -2.00338,5.14955 -2.00338,8.2364 0,1.23201 0.11097,2.4073 0.32373,3.53056 0.34715,-0.13879 0.68478,-0.2883 1.00345,-0.45862 1.72151,-0.92012 2.998,-2.12215 3.82907,-3.60621 0.83108,-1.51375 1.24626,-3.17563 1.24626,-4.98618 0,-1.95896 -0.43007,-3.6953 -1.29083,-5.20904 -0.16867,-0.29663 -0.35894,-0.57707 -0.56066,-0.84863 z" />
  </g>
</svg>
