<?xml version="1.0" encoding="UTF-8" standalone="no"?>
<!-- Created with Inkscape (http://www.inkscape.org/) -->

<svg
   width="210mm"
   height="297mm"
   viewBox="0 0 210 297"
   version="1.1"
   id="svg1"
   inkscape:version="1.3 (0e150ed6c4, 2023-07-21)"
   sodipodi:docname="sketches.svg"
   xmlns:inkscape="http://www.inkscape.org/namespaces/inkscape"
   xmlns:sodipodi="http://sodipodi.sourceforge.net/DTD/sodipodi-0.dtd"
   xmlns="http://www.w3.org/2000/svg"
   xmlns:svg="http://www.w3.org/2000/svg">
  <sodipodi:namedview
     id="namedview1"
     pagecolor="#ffffff"
     bordercolor="#000000"
     borderopacity="0.25"
     inkscape:showpageshadow="2"
     inkscape:pageopacity="0.0"
     inkscape:pagecheckerboard="0"
     inkscape:deskcolor="#d1d1d1"
     inkscape:document-units="mm"
     inkscape:zoom="1.4342733"
     inkscape:cx="670.02574"
     inkscape:cy="588.10272"
     inkscape:window-width="1920"
     inkscape:window-height="1011"
     inkscape:window-x="0"
     inkscape:window-y="0"
     inkscape:window-maximized="1"
     inkscape:current-layer="layer1" />
  <defs
     id="defs1" />
  <g
     inkscape:label="Layer 1"
     inkscape:groupmode="layer"
     id="layer1">
    <rect
       style="fill:#f7ec59;fill-opacity:1;stroke-width:0.264583"
       id="rect1"
       width="67.331573"
       height="67.331573"
       x="37.668427"
       y="120.60258"
       ry="15.783886" />
    <path
       style="font-weight:bold;font-size:39.2301px;font-family:Poppins;-inkscape-font-specification:'Poppins Bold';fill:#2b2d42;stroke-width:3.26918"
       d="m 50.780808,154.84155 q 1.922275,0 2.863798,-0.90229 0.941522,-0.90229 0.941522,-2.54996 0,-1.64766 -0.941522,-2.54995 -0.941523,-0.9023 -2.863798,-0.9023 h -3.648399 v 6.9045 z"
       id="path1" />
    <g
       id="g11"
       transform="translate(3.2239243,25.506713)">
      <path
         style="font-weight:bold;font-size:39.2301px;font-family:Poppins;-inkscape-font-specification:'Poppins Bold';fill:#2b2d42;stroke-width:3.71016"
         d="m 83.363188,123.08511 q -0.845916,-1.55826 -2.448704,-2.35966 -1.558267,-0.84591 -3.695318,-0.84591 -3.695319,0 -5.921414,2.4487 -2.226096,2.40419 -2.226096,6.45568 0,4.31862 2.31514,6.76733 2.359661,2.40418 6.455676,2.40418 2.80488,0 4.719322,-1.4247 1.958965,-1.4247 2.849403,-4.09602 h -9.661255 v -5.60976 h 16.56215 v 7.07899 q -0.845917,2.8494 -2.893924,5.2981 -2.003486,2.44871 -5.12002,3.96245 -3.116533,1.51375 -7.03446,1.51375 -4.630279,0 -8.281075,-2.00349 -3.606275,-2.048 -5.654282,-5.65428 -2.003486,-3.60627 -2.003486,-8.23655 0,-4.63028 2.003486,-8.23655 2.048007,-3.6508 5.654282,-5.65429 3.606274,-2.048 8.236553,-2.048 5.60976,0 9.438643,2.71583 3.873407,2.71584 5.12002,7.5242 z"
         id="path2" />
      <path
         style="font-weight:bold;font-size:39.2301px;font-family:Poppins;-inkscape-font-specification:'Poppins Bold';fill:#2b2d42;stroke-width:3.71016"
         d="m 67.727705,123.2632 q 0,2.71584 -1.246614,4.98645 -1.246612,2.2261 -3.828883,3.60628 -2.582271,1.38018 -6.411154,1.38018 h -4.719323 v 11.21952 h -7.613246 v -31.25438 h 12.332569 q 3.73984,0 6.322111,1.29114 2.582269,1.29113 3.873405,3.56175 1.291135,2.27062 1.291135,5.20906 z"
         id="text1" />
      <path
         id="path3"
         style="font-weight:bold;font-size:39.2301px;font-family:Poppins;-inkscape-font-specification:'Poppins Bold';fill:#5da9e9;fill-opacity:1;stroke-width:3.71016"
         d="m 65.875971,117.2057 c -0.988052,0.96716 -1.839236,2.07892 -2.547632,3.34172 -1.335657,2.40418 -2.003387,5.14955 -2.003387,8.2364 0,1.23201 0.110972,2.4073 0.323733,3.53056 0.347146,-0.13879 0.684783,-0.2883 1.003452,-0.45862 1.721512,-0.92012 2.997998,-2.12215 3.829073,-3.60621 0.831074,-1.51375 1.246251,-3.17563 1.246251,-4.98618 0,-1.95896 -0.430068,-3.6953 -1.290824,-5.20904 -0.168672,-0.29663 -0.35894,-0.57707 -0.560666,-0.84863 z" />
    </g>
    <path
       style="font-weight:bold;font-size:39.2301px;font-family:Poppins;-inkscape-font-specification:'Poppins Bold';fill:#2b2d42;stroke-width:3.71016"
       d="m 169.49884,150.82509 q -0.84591,-1.55826 -2.4487,-2.35966 -1.55827,-0.84591 -3.69532,-0.84591 -3.69532,0 -5.92141,2.4487 -2.2261,2.40419 -2.2261,6.45568 0,4.31862 2.31514,6.76733 2.35966,2.40418 6.45568,2.40418 2.80488,0 4.71932,-1.4247 1.95896,-1.4247 2.8494,-4.09602 h -9.66125 v -5.60976 h 16.56215 v 7.07899 q -0.84592,2.8494 -2.89393,5.2981 -2.00348,2.44871 -5.12002,3.96245 -3.11653,1.51375 -7.03446,1.51375 -4.63028,0 -8.28107,-2.00349 -3.60628,-2.048 -5.65428,-5.65428 -2.00349,-3.60627 -2.00349,-8.23655 0,-4.63028 2.00349,-8.23655 2.048,-3.6508 5.65428,-5.65429 3.60627,-2.048 8.23655,-2.048 5.60976,0 9.43864,2.71583 3.87341,2.71584 5.12002,7.5242 z"
       id="path4"
       inkscape:export-filename="logo_bare.svg"
       inkscape:export-xdpi="96"
       inkscape:export-ydpi="96" />
    <path
       style="font-weight:bold;font-size:39.2301px;font-family:Poppins;-inkscape-font-specification:'Poppins Bold';fill:#2b2d42;stroke-width:3.71016"
       d="m 153.86336,151.00318 q 0,2.71584 -1.24661,4.98645 -1.24662,2.2261 -3.82889,3.60628 -2.58227,1.38018 -6.41115,1.38018 h -4.71932 v 11.21952 h -7.61325 v -31.25438 h 12.33257 q 3.73984,0 6.32211,1.29114 2.58227,1.29113 3.8734,3.56175 1.29114,2.27062 1.29114,5.20906 z"
       id="path5" />
    <path
       id="path6"
       style="font-weight:bold;font-size:39.2301px;font-family:Poppins;-inkscape-font-specification:'Poppins Bold';fill:#5da9e9;fill-opacity:1;stroke-width:3.71016"
       d="m 152.01163,144.94568 c -0.98806,0.96716 -1.83924,2.07892 -2.54764,3.34172 -1.33565,2.40418 -2.00338,5.14955 -2.00338,8.2364 0,1.23201 0.11097,2.4073 0.32373,3.53056 0.34715,-0.13879 0.68478,-0.2883 1.00345,-0.45862 1.72151,-0.92012 2.998,-2.12215 3.82907,-3.60621 0.83108,-1.51375 1.24626,-3.17563 1.24626,-4.98618 0,-1.95896 -0.43007,-3.6953 -1.29083,-5.20904 -0.16867,-0.29663 -0.35894,-0.57707 -0.56066,-0.84863 z" />
    <path
       style="font-weight:bold;font-size:39.2301px;font-family:Poppins;-inkscape-font-specification:'Poppins Bold';fill:#000000;fill-opacity:1;stroke-width:3.71016"
       d="m 131.38344,215.26826 q -0.84591,-1.55826 -2.4487,-2.35966 -1.55827,-0.84591 -3.69532,-0.84591 -3.69532,0 -5.92141,2.4487 -2.2261,2.40419 -2.2261,6.45568 0,4.31862 2.31514,6.76733 2.35966,2.40418 6.45568,2.40418 2.80488,0 4.71932,-1.4247 1.95896,-1.4247 2.8494,-4.09602 h -9.66125 v -5.60976 h 16.56215 v 7.07899 q -0.84592,2.8494 -2.89393,5.2981 -2.00348,2.44871 -5.12002,3.96245 -3.11653,1.51375 -7.03446,1.51375 -4.63028,0 -8.28107,-2.00349 -3.60628,-2.048 -5.65428,-5.65428 -2.00349,-3.60627 -2.00349,-8.23655 0,-4.63028 2.00349,-8.23655 2.048,-3.6508 5.65428,-5.65429 3.60627,-2.048 8.23655,-2.048 5.60976,0 9.43864,2.71583 3.87341,2.71584 5.12002,7.5242 z"
       id="path7" />
    <path
       style="font-weight:bold;font-size:39.2301px;font-family:Poppins;-inkscape-font-specification:'Poppins Bold';fill:#000000;fill-opacity:1;stroke-width:3.71016"
       d="m 115.74796,215.44635 q 0,2.71584 -1.24661,4.98645 -1.24662,2.2261 -3.82889,3.60628 -2.58227,1.38018 -6.41115,1.38018 h -4.719323 v 11.21952 H 91.928741 V 205.3844 h 12.332569 q 3.73984,0 6.32211,1.29114 2.58227,1.29113 3.8734,3.56175 1.29114,2.27062 1.29114,5.20906 z"
       id="path8" />
    <path
       id="path9"
       style="font-weight:bold;font-size:39.2301px;font-family:Poppins;-inkscape-font-specification:'Poppins Bold';fill:#ffffff;fill-opacity:1;stroke-width:3.71016"
       d="m 113.89623,209.38885 c -0.98806,0.96716 -1.83924,2.07892 -2.54764,3.34172 -1.33565,2.40418 -2.00338,5.14955 -2.00338,8.2364 0,1.23201 0.11097,2.4073 0.32373,3.53056 0.34715,-0.13879 0.68478,-0.2883 1.00345,-0.45862 1.72151,-0.92012 2.998,-2.12215 3.82907,-3.60621 0.83108,-1.51375 1.24626,-3.17563 1.24626,-4.98618 0,-1.95896 -0.43007,-3.6953 -1.29083,-5.20904 -0.16867,-0.29663 -0.35894,-0.57707 -0.56066,-0.84863 z" />
    <rect
       style="fill:#5da9e9;fill-opacity:1;stroke-width:0.264583"
       id="rect9"
       width="25.170103"
       height="25.170103"
       x="98.395866"
       y="64.883179"
       ry="0" />
    <rect
       style="fill:#2b2d42;fill-opacity:1;stroke-width:0.264583"
       id="rect10"
       width="25.170103"
       height="25.170103"
       x="123.56596"
       y="64.883179"
       ry="0" />
    <rect
       style="fill:#f7ec59;fill-opacity:1;stroke-width:0.264583"
       id="rect11"
       width="25.170103"
       height="25.170103"
       x="73.225769"
       y="64.883179"
       ry="0" />
  </g>
</svg>
